<svg id="Camada_1" data-name="Camada 1" xmlns="http://www.w3.org/2000/svg" viewBox="0 0 811.68 807.34">
<defs>
<style>.cls-1{fill:#37ad37;}.cls-2,.cls-5,.cls-7,.cls-8{fill:#fff;}.cls-3,.cls-4{fill:none;}.cls-3{stroke:#184f18;stroke-width:25px;}.cls-3,.cls-4,.cls-7,.cls-8{stroke-miterlimit:10;}.cls-4,.cls-7,.cls-8{stroke:#fff;}.cls-4{stroke-width:8px;}.cls-5{font-size:44px;font-family:MyriadPro-Bold, Myriad Pro;font-weight:700;}.cls-6{letter-spacing:-0.05em;}.cls-8{stroke-width:2px;}</style>
</defs><title>logo</title><path class="cls-1" d="M265.7,864.5a64.27,64.27,0,0,1-64.2-64.21V366.9a32.53,32.53,0,0,1,5.29-3.4H229.5V345.22c2.23-2.79,4.49-5.92,7-9.72h16V323.38c7.9-3.09,14.35-8.5,17.73-14.88h5.27V295c.42-.26.84-.52,1.27-.77a75.83,75.83,0,0,1,8.54-4.1c7-3,14.92-6.46,19-13.28a13.47,13.47,0,0,0,2-7.39h396.8c4.42,5.13,9.1,10.14,13.64,15l.59.62a7.65,7.65,0,0,0,5.31,6.44l.9.26c.63.68,1.25,1.37,1.87,2.05,1.11,1.23,2.31,2.48,3.66,3.77a7.23,7.23,0,0,0,.06,5.59,7.77,7.77,0,0,0,7,4.92,7.45,7.45,0,0,0,3.17-.73c1.79,1.59,3.64,3.09,5.51,4.49a6.78,6.78,0,0,0,.09,4.37c2.18,5.34,7.17,8.65,14.84,9.84l.94,1.1a17.42,17.42,0,0,0,7.75,8.63c1.7,1.74,3.15,3.13,4.55,4.35s2.6,2.17,4,3.29a10.06,10.06,0,0,0,6.44,6.53l.1.13a6.77,6.77,0,0,0,1.73,4.5,7.36,7.36,0,0,0,5.27,2.34c.48.35,1,.7,1.55,1.06,1.5,1.79,3,3.63,4.46,5.43V800.3a64.27,64.27,0,0,1-64.2,64.2Z" transform="translate(-94.66 -59.66)"/>
<path class="cls-2" d="M701.93,272c4.23,4.87,8.67,9.61,13,14.21l.05.05a10.15,10.15,0,0,0,6.93,7.68l.26.08,1.38,1.52c.84.92,1.72,1.86,2.68,2.81a9.94,9.94,0,0,0,.59,5.83,10.16,10.16,0,0,0,9.3,6.46,9.91,9.91,0,0,0,2.65-.37c1.08.92,2.17,1.81,3.28,2.67a8.55,8.55,0,0,0,.53,4.28c2.44,6,7.76,9.75,15.84,11.21l.09.11a20,20,0,0,0,8.37,9.3c1.64,1.67,3.06,3,4.46,4.23,1.16,1,2.32,2,3.55,2.95a12.67,12.67,0,0,0,6.31,6.83,9.23,9.23,0,0,0,2.19,4.47,9.77,9.77,0,0,0,6.25,3.1l.75.51c1.22,1.46,2.44,2.95,3.64,4.42V800.3A61.77,61.77,0,0,1,732.3,862H265.7A61.77,61.77,0,0,1,204,800.3V368.13a33.75,33.75,0,0,1,3.43-2.13H232V346.09c1.88-2.39,3.78-5,5.84-8.09H255V325.05A36.62,36.62,0,0,0,271.69,311H278V296.44l.05,0a74.33,74.33,0,0,1,8.25-4c7.35-3.18,15.67-6.78,20.12-14.29a16.66,16.66,0,0,0,2.22-6.17H701.93m2.29-5H303.36a10.66,10.66,0,0,1-1.24,8.62c-5.27,8.89-18.25,11.51-26.63,16.5-.84.5-1.66,1-2.49,1.54V306h-4.33c-3.28,7.36-10.7,12.92-18.67,15.63V333H235.15A131.73,131.73,0,0,1,227,344.34V361H206.17a33,33,0,0,0-7.17,4.77V800.3A66.7,66.7,0,0,0,265.7,867H732.3A66.7,66.7,0,0,0,799,800.3V362.58l0,0c-1.74-2.15-3.48-4.29-5.26-6.4a29.19,29.19,0,0,1-2.39-1.68l-.55,0c-2.59,0-5.09-1.72-4.73-5.17l0-.07c-.41-.49-.82-1-1.22-1.47-2.82-.48-4.82-2.84-5.69-5.78-1.52-1.21-3-2.42-4.51-3.7-1.64-1.41-3.17-2.92-4.66-4.46a14.85,14.85,0,0,1-7.07-7.83.32.32,0,0,1,0-.09c-.61-.71-1.22-1.43-1.84-2.14-5.83-.75-11.54-2.9-13.8-8.44a4.88,4.88,0,0,1,.72-4.24,86.08,86.08,0,0,1-8.21-6.65l-.07-.05-1.1.59a5,5,0,0,1-2.43.66c-4,0-6.83-5.41-3.82-8.4-1.75-1.61-3.44-3.28-5-5.05l-2.37-2.59-1.53-.45a5.12,5.12,0,0,1-3.59-5.08c-5.26-5.62-10.55-11.23-15.53-17.07Z" transform="translate(-94.66 -59.66)"/>
<line class="cls-3" x1="8.84" y1="415.84" x2="415.84" y2="8.84"/>
<line class="cls-3" x1="802.84" y1="413.84" x2="400.84" y2="11.84"/>
<path class="cls-1" d="M761.63,372.72v-1.23a5.35,5.35,0,0,0-5.35-5.34h-1a5.35,5.35,0,0,1-5.34-5.35v-2.14a5.36,5.36,0,0,0-5.35-5.35h-3.06a5.34,5.34,0,0,1-5.34-5.34v-3.29a5.36,5.36,0,0,0-5.35-5.35h-2.6A5.34,5.34,0,0,1,722.9,334v-2.6a5.36,5.36,0,0,0-5.35-5.35h-1.91a5.35,5.35,0,0,1-5.35-5.35v-2.36a5.34,5.34,0,0,0-5.35-5.35h-2.13a5.34,5.34,0,0,1-5.35-5.35v-1.45a5.36,5.36,0,0,0-5.35-5.35h-2.6a5.34,5.34,0,0,1-5.34-5.34v-2.14a5.35,5.35,0,0,0-5.35-5.35H320.4a5.34,5.34,0,0,0-5.34,5.35v2.44a5.36,5.36,0,0,1-5.35,5.35h-2.14a5.35,5.35,0,0,0-5.35,5.35v2.44a5.35,5.35,0,0,1-5.35,5.35h-2.74a5.34,5.34,0,0,0-5.35,5.34v2.14a5.35,5.35,0,0,1-5.35,5.35h-4.58a5.35,5.35,0,0,0-5.35,5.35v3.66a5.34,5.34,0,0,1-5.35,5.35h0a5.35,5.35,0,0,0-5.34,5.35v1.83a5.35,5.35,0,0,1-5.35,5.35H255a5.34,5.34,0,0,0-5.34,5.35v1.52a5.35,5.35,0,0,1-5.35,5.35H241a5.36,5.36,0,0,0-5.35,5.35v3.05a5.34,5.34,0,0,1-5.35,5.35h-.91a5.35,5.35,0,0,0-5.35,5.35V832.65a5.34,5.34,0,0,0,5.35,5.35h539.3a5.34,5.34,0,0,0,5.35-5.35V383.41a5.35,5.35,0,0,0-5.35-5.35H767A5.34,5.34,0,0,1,761.63,372.72Z" transform="translate(-94.66 -59.66)"/>
<line class="cls-4" x1="184.84" y1="722.84" x2="570.84" y2="336.84"/>
<text class="cls-5" transform="translate(598.34 493.51) scale(1.13 1)">
<tspan class="cls-6">$</tspan>
<tspan x="22.38" y="0">?</tspan>
</text>
<path class="cls-7" d="M620.3,647.12l41.75-10.76a13.72,13.72,0,0,0,9.12-9l10.49-37.54a7.27,7.27,0,0,0-6.78-9.46l-4.48-.24a10.54,10.54,0,0,0-9.78,7.19l-6.86,22.41a8.3,8.3,0,0,1-5.17,4.87l-31,6a10.8,10.8,0,0,0-7.91,9.78s-.39,13.55.94,14.93S613.66,648.08,620.3,647.12Z" transform="translate(-94.66 -59.66)"/>
<path class="cls-7" d="M648.08,603.64a31.07,31.07,0,0,0,3.75-.25l5.23-17.12a14.4,14.4,0,0,1,13.35-9.82l4.67.24a11.69,11.69,0,0,1,3.6.84,30.69,30.69,0,0,0,.43-4.91,31,31,0,1,0-31,31Z" transform="translate(-94.66 -59.66)"/>
<path class="cls-7" d="M716.47,504.1c-17.1,0-31,15.37-31,34.25a36.2,36.2,0,0,0,7.47,22.23,2.81,2.81,0,0,0-.65.68l-6.38,10a2.86,2.86,0,0,0,2.42,4.4,2.85,2.85,0,0,0,2.42-1.32l6.07-9.55a29.18,29.18,0,0,0,19.66,7.79c17.1,0,31-15.37,31-34.25S733.57,504.1,716.47,504.1Zm0,62.76c-13.94,0-25.29-12.79-25.29-28.51s11.35-28.52,25.29-28.52,25.29,12.79,25.29,28.52S730.42,566.86,716.47,566.86Z" transform="translate(-94.66 -59.66)"/>
<path class="cls-7" d="M687,616.5a15.07,15.07,0,0,0-7.81-5.23l-4.69,16.93a17.49,17.49,0,0,1-11.71,11.6L621.3,650.61a31,31,0,0,1-4.76.43c-.37,0-.7,0-1,0v140.2a14.31,14.31,0,0,0,14.31,14.31h1.38a14.31,14.31,0,0,0,14.31-14.31V715.5h6v75.69a14.31,14.31,0,0,0,14.31,14.31h.38a14.31,14.31,0,0,0,14.31-14.31V705.5h.89a13.66,13.66,0,0,0,11-6.47l19.77-35.43a12.87,12.87,0,0,0-.69-12.76Zm3.05,46.6-9.58,15.61V643.18l9.39,13.48A6.67,6.67,0,0,1,690.08,663.1Z" transform="translate(-94.66 -59.66)"/>
<path class="cls-2" d="M423.11,467.65a2.5,2.5,0,0,0-3.11,2.44v22.36a7.56,7.56,0,0,1-7.58,7.55H341.58a7.56,7.56,0,0,1-7.58-7.55V427.13s3.41-7.54,7.58-7.13h22.33a3.27,3.27,0,0,0,2.52-2.93c0-1.39-2.52-3.07-2.52-3.07H341.62A12.63,12.63,0,0,0,329,426.62v65.76A12.63,12.63,0,0,0,341.62,505H412.5A12.55,12.55,0,0,0,425,492.42V470.2A2.59,2.59,0,0,0,423.11,467.65Z" transform="translate(-94.66 -59.66)"/>
<path class="cls-2" d="M433.74,408.08a11.32,11.32,0,0,0-16,0L372.85,453a2.53,2.53,0,0,0-.64,1.11l-5.9,21.3a2.49,2.49,0,0,0,.64,2.45,2.53,2.53,0,0,0,2.45.65l21.31-5.9a2.46,2.46,0,0,0,1.1-.65L436.69,427a11.34,11.34,0,0,0,0-16Zm-55.41,46.51,36.73-36.73,11.85,11.85-36.73,36.73ZM376,459.34l9.46,9.47-13.09,3.62Zm57.16-35.86-2.66,2.67-11.85-11.84,2.67-2.67a6.28,6.28,0,0,1,8.89,0l2.95,2.95A6.3,6.3,0,0,1,433.13,423.48Z" transform="translate(-94.66 -59.66)"/>
<line class="cls-8" x1="239.34" y1="382.34" x2="267.34" y2="382.34"/>
<line class="cls-8" x1="237.34" y1="400.34" x2="274.34" y2="400.34"/>
<line class="cls-8" x1="237.34" y1="422.34" x2="298.34" y2="422.34"/>
</svg>